STARTFONT 2.1
COMMENT  
COMMENT  Copyright (c) 1990 Stephen Gildea
COMMENT  
COMMENT  Permission to use, copy, modify, and distribute this software for
COMMENT  any purpose is hereby granted without fee, provided that the above
COMMENT  copyright notice and this permission notice appear in all copies.
COMMENT  The authors make no representations about the suitability of this
COMMENT  software for any purpose.  It is provided "as is" without express
COMMENT  or implied warranty.
COMMENT  
COMMENT  Designed by Stephen Gildea <gildea@lcs.mit.edu>
COMMENT  Original design November 1989.
COMMENT  Current version June 1990.
COMMENT  
COMMENT  Characters above 127 designed and made by
COMMENT  Thomas Bagli (pyramid!pcsbst!tom@uunet.UU.NET)
COMMENT  PCS Computer Systeme, West Germany
COMMENT  
FONT -Misc-Fixed-Medium-R-Normal--13-120-75-75-C-70-ISO8859-1
SIZE 13 78 78
FONTBOUNDINGBOX 7 13 0 -3
STARTPROPERTIES 21
FONTNAME_REGISTRY ""
FOUNDRY "Misc"
FAMILY_NAME "Fixed"
WEIGHT_NAME "Medium"
SLANT "R"
SETWIDTH_NAME "Normal"
ADD_STYLE_NAME ""
PIXEL_SIZE 13
POINT_SIZE 120
RESOLUTION_X 75
RESOLUTION_Y 75
SPACING "C"
AVERAGE_WIDTH 70
CHARSET_REGISTRY "ISO8859"
CHARSET_ENCODING "1"
UNDERLINE_POSITITION -2
DESTINATION 1
DEFAULT_CHAR 0
FONT_DESCENT 3
FONT_ASCENT 10
DATE "June 1990"
ENDPROPERTIES
CHARS 224
STARTCHAR Error
ENCODING 0
SWIDTH 570 0
DWIDTH 7 0
BBX 7 13 0 -3
BITMAP
0000
5400
2800
5400
2800
5400
2800
5400
2800
5400
2800
5400
0000
ENDCHAR
STARTCHAR C001
ENCODING 1
SWIDTH 570 0
DWIDTH 7 0
BBX 7 13 0 -3
BITMAP
0000
0000
0000
0000
0000
2000
7000
f800
7000
2000
0000
0000
0000
ENDCHAR
STARTCHAR C002
ENCODING 2
SWIDTH 570 0
DWIDTH 7 0
BBX 7 13 0 -3
BITMAP
0000
0000
5400
2800
5400
2800
5400
2800
5400
2800
5400
0000
0000
ENDCHAR
STARTCHAR HT
ENCODING 3
SWIDTH 570 0
DWIDTH 7 0
BBX 7 13 0 -3
BITMAP
0000
0000
9000
9000
f000
9000
9000
1c00
0800
0800
0800
0800
0000
ENDCHAR
STARTCHAR FF
ENCODING 4
SWIDTH 570 0
DWIDTH 7 0
BBX 7 13 0 -3
BITMAP
0000
0000
f000
8000
e000
8000
8000
3c00
2000
3800
2000
2000
0000
ENDCHAR
STARTCHAR CR
ENCODING 5
SWIDTH 570 0
DWIDTH 7 0
BBX 7 13 0 -3
BITMAP
0000
0000
7000
8000
8000
8000
7000
3800
2400
3800
2800
2400
0000
ENDCHAR
STARTCHAR LF
ENCODING 6
SWIDTH 570 0
DWIDTH 7 0
BBX 7 13 0 -3
BITMAP
0000
0000
8000
8000
8000
8000
f000
3c00
2000
3800
2000
2000
0000
ENDCHAR
STARTCHAR Degree
ENCODING 7
SWIDTH 570 0
DWIDTH 7 0
BBX 7 13 0 -3
BITMAP
0000
0000
7000
8800
8800
7000
0000
0000
0000
0000
0000
0000
0000
ENDCHAR
STARTCHAR Plus/Minus
ENCODING 8
SWIDTH 570 0
DWIDTH 7 0
BBX 7 13 0 -3
BITMAP
0000
0000
0000
2000
2000
f800
2000
2000
0000
f800
0000
0000
0000
ENDCHAR
STARTCHAR NL
ENCODING 9
SWIDTH 570 0
DWIDTH 7 0
BBX 7 13 0 -3
BITMAP
0000
0000
9000
d000
b000
9000
9000
2000
2000
2000
2000
3c00
0000
ENDCHAR
STARTCHAR VT
ENCODING 10
SWIDTH 570 0
DWIDTH 7 0
BBX 7 13 0 -3
BITMAP
0000
0000
8800
8800
5000
5000
2000
7c00
1000
1000
1000
1000
0000
ENDCHAR
STARTCHAR C013
ENCODING 11
SWIDTH 570 0
DWIDTH 7 0
BBX 7 13 0 -3
BITMAP
1000
1000
1000
1000
1000
1000
f000
0000
0000
0000
0000
0000
0000
ENDCHAR
STARTCHAR C014
ENCODING 12
SWIDTH 570 0
DWIDTH 7 0
BBX 7 13 0 -3
BITMAP
0000
0000
0000
0000
0000
0000
f000
1000
1000
1000
1000
1000
1000
ENDCHAR
STARTCHAR C015
ENCODING 13
SWIDTH 570 0
DWIDTH 7 0
BBX 7 13 0 -3
BITMAP
0000
0000
0000
0000
0000
0000
1e00
1000
1000
1000
1000
1000
1000
ENDCHAR
STARTCHAR C016
ENCODING 14
SWIDTH 570 0
DWIDTH 7 0
BBX 7 13 0 -3
BITMAP
1000
1000
1000
1000
1000
1000
1e00
0000
0000
0000
0000
0000
0000
ENDCHAR
STARTCHAR C017
ENCODING 15
SWIDTH 570 0
DWIDTH 7 0
BBX 7 13 0 -3
BITMAP
1000
1000
1000
1000
1000
1000
fe00
1000
1000
1000
1000
1000
1000
ENDCHAR
STARTCHAR C020
ENCODING 16
SWIDTH 570 0
DWIDTH 7 0
BBX 7 13 0 -3
BITMAP
0000
0000
fe00
0000
0000
0000
0000
0000
0000
0000
0000
0000
0000
ENDCHAR
STARTCHAR C021
ENCODING 17
SWIDTH 570 0
DWIDTH 7 0
BBX 7 13 0 -3
BITMAP
0000
0000
0000
0000
fe00
0000
0000
0000
0000
0000
0000
0000
0000
ENDCHAR
STARTCHAR C022
ENCODING 18
SWIDTH 570 0
DWIDTH 7 0
BBX 7 13 0 -3
BITMAP
0000
0000
0000
0000
0000
0000
fe00
0000
0000
0000
0000
0000
0000
ENDCHAR
STARTCHAR C023
ENCODING 19
SWIDTH 570 0
DWIDTH 7 0
BBX 7 13 0 -3
BITMAP
0000
0000
0000
0000
0000
0000
0000
0000
fe00
0000
0000
0000
0000
ENDCHAR
STARTCHAR C024
ENCODING 20
SWIDTH 570 0
DWIDTH 7 0
BBX 7 13 0 -3
BITMAP
0000
0000
0000
0000
0000
0000
0000
0000
0000
0000
fe00
0000
0000
ENDCHAR
STARTCHAR C025
ENCODING 21
SWIDTH 570 0
DWIDTH 7 0
BBX 7 13 0 -3
BITMAP
1000
1000
1000
1000
1000
1000
1e00
1000
1000
1000
1000
1000
1000
ENDCHAR
STARTCHAR C026
ENCODING 22
SWIDTH 570 0
DWIDTH 7 0
BBX 7 13 0 -3
BITMAP
1000
1000
1000
1000
1000
1000
f000
1000
1000
1000
1000
1000
1000
ENDCHAR
STARTCHAR C027
ENCODING 23
SWIDTH 570 0
DWIDTH 7 0
BBX 7 13 0 -3
BITMAP
1000
1000
1000
1000
1000
1000
fe00
0000
0000
0000
0000
0000
0000
ENDCHAR
STARTCHAR C030
ENCODING 24
SWIDTH 570 0
DWIDTH 7 0
BBX 7 13 0 -3
BITMAP
0000
0000
0000
0000
0000
0000
fe00
1000
1000
1000
1000
1000
1000
ENDCHAR
STARTCHAR C031
ENCODING 25
SWIDTH 570 0
DWIDTH 7 0
BBX 7 13 0 -3
BITMAP
1000
1000
1000
1000
1000
1000
1000
1000
1000
1000
1000
1000
1000
ENDCHAR
STARTCHAR <=
ENCODING 26
SWIDTH 570 0
DWIDTH 7 0
BBX 7 13 0 -3
BITMAP
0000
0000
0000
0400
1800
6000
8000
6000
1800
0400
fc00
0000
0000
ENDCHAR
STARTCHAR >=
ENCODING 27
SWIDTH 570 0
DWIDTH 7 0
BBX 7 13 0 -3
BITMAP
0000
0000
0000
8000
6000
1800
0400
1800
6000
8000
fc00
0000
0000
ENDCHAR
STARTCHAR Pi
ENCODING 28
SWIDTH 570 0
DWIDTH 7 0
BBX 7 13 0 -3
BITMAP
0000
0000
0000
0000
0000
fc00
4800
4800
4800
4800
8800
0000
0000
ENDCHAR
STARTCHAR Not Equal
ENCODING 29
SWIDTH 570 0
DWIDTH 7 0
BBX 7 13 0 -3
BITMAP
0000
0000
0000
0400
0800
fc00
1000
2000
fc00
4000
8000
0000
0000
ENDCHAR
STARTCHAR Pound Sterling
ENCODING 30
SWIDTH 570 0
DWIDTH 7 0
BBX 7 13 0 -3
BITMAP
0000
0000
0000
3800
4400
4000
e000
4000
4000
4400
b800
0000
0000
ENDCHAR
STARTCHAR Cdot
ENCODING 31
SWIDTH 570 0
DWIDTH 7 0
BBX 7 13 0 -3
BITMAP
0000
0000
0000
0000
0000
0000
1000
0000
0000
0000
0000
0000
0000
ENDCHAR
STARTCHAR Space
ENCODING 32
SWIDTH 570 0
DWIDTH 7 0
BBX 7 13 0 -3
BITMAP
0000
0000
0000
0000
0000
0000
0000
0000
0000
0000
0000
0000
0000
ENDCHAR
STARTCHAR !
ENCODING 33
SWIDTH 570 0
DWIDTH 7 0
BBX 7 13 0 -3
BITMAP
0000
0000
1000
1000
1000
1000
1000
1000
1000
0000
1000
0000
0000
ENDCHAR
STARTCHAR "
ENCODING 34
SWIDTH 570 0
DWIDTH 7 0
BBX 7 13 0 -3
BITMAP
0000
0000
2800
2800
2800
0000
0000
0000
0000
0000
0000
0000
0000
ENDCHAR
STARTCHAR #
ENCODING 35
SWIDTH 570 0
DWIDTH 7 0
BBX 7 13 0 -3
BITMAP
0000
0000
0000
2800
2800
7c00
2800
7c00
2800
2800
0000
0000
0000
ENDCHAR
STARTCHAR $
ENCODING 36
SWIDTH 570 0
DWIDTH 7 0
BBX 7 13 0 -3
BITMAP
0000
0000
0000
1000
3c00
5000
3800
1400
7800
1000
0000
0000
0000
ENDCHAR
STARTCHAR %
ENCODING 37
SWIDTH 570 0
DWIDTH 7 0
BBX 7 13 0 -3
BITMAP
0000
0000
4400
a400
4800
1000
1000
2000
4800
9400
8800
0000
0000
ENDCHAR
STARTCHAR &
ENCODING 38
SWIDTH 570 0
DWIDTH 7 0
BBX 7 13 0 -3
BITMAP
0000
0000
0000
0000
6000
9000
9000
6000
9400
8800
7400
0000
0000
ENDCHAR
STARTCHAR '
ENCODING 39
SWIDTH 570 0
DWIDTH 7 0
BBX 7 13 0 -3
BITMAP
0000
0000
3800
3000
4000
0000
0000
0000
0000
0000
0000
0000
0000
ENDCHAR
STARTCHAR (
ENCODING 40
SWIDTH 570 0
DWIDTH 7 0
BBX 7 13 0 -3
BITMAP
0000
0000
0800
1000
1000
2000
2000
2000
1000
1000
0800
0000
0000
ENDCHAR
STARTCHAR )
ENCODING 41
SWIDTH 570 0
DWIDTH 7 0
BBX 7 13 0 -3
BITMAP
0000
0000
2000
1000
1000
0800
0800
0800
1000
1000
2000
0000
0000
ENDCHAR
STARTCHAR *
ENCODING 42
SWIDTH 570 0
DWIDTH 7 0
BBX 7 13 0 -3
BITMAP
0000
0000
0000
0000
4800
3000
fc00
3000
4800
0000
0000
0000
0000
ENDCHAR
STARTCHAR +
ENCODING 43
SWIDTH 570 0
DWIDTH 7 0
BBX 7 13 0 -3
BITMAP
0000
0000
0000
0000
1000
1000
7c00
1000
1000
0000
0000
0000
0000
ENDCHAR
STARTCHAR ,
ENCODING 44
SWIDTH 570 0
DWIDTH 7 0
BBX 7 13 0 -3
BITMAP
0000
0000
0000
0000
0000
0000
0000
0000
0000
3800
3000
4000
0000
ENDCHAR
STARTCHAR -
ENCODING 45
SWIDTH 570 0
DWIDTH 7 0
BBX 7 13 0 -3
BITMAP
0000
0000
0000
0000
0000
0000
fc00
0000
0000
0000
0000
0000
0000
ENDCHAR
STARTCHAR .
ENCODING 46
SWIDTH 570 0
DWIDTH 7 0
BBX 7 13 0 -3
BITMAP
0000
0000
0000
0000
0000
0000
0000
0000
0000
1000
3800
1000
0000
ENDCHAR
STARTCHAR /
ENCODING 47
SWIDTH 570 0
DWIDTH 7 0
BBX 7 13 0 -3
BITMAP
0000
0000
0400
0400
0800
0800
1000
2000
2000
4000
4000
0000
0000
ENDCHAR
STARTCHAR 0
ENCODING 48
SWIDTH 570 0
DWIDTH 7 0
BBX 7 13 0 -3
BITMAP
0000
0000
3000
4800
8400
8400
8400
8400
8400
4800
3000
0000
0000
ENDCHAR
STARTCHAR 1
ENCODING 49
SWIDTH 570 0
DWIDTH 7 0
BBX 7 13 0 -3
BITMAP
0000
0000
1000
3000
5000
1000
1000
1000
1000
1000
7c00
0000
0000
ENDCHAR
STARTCHAR 2
ENCODING 50
SWIDTH 570 0
DWIDTH 7 0
BBX 7 13 0 -3
BITMAP
0000
0000
7800
8400
8400
0400
0800
3000
4000
8000
fc00
0000
0000
ENDCHAR
STARTCHAR 3
ENCODING 51
SWIDTH 570 0
DWIDTH 7 0
BBX 7 13 0 -3
BITMAP
0000
0000
fc00
0400
0800
1000
3800
0400
0400
8400
7800
0000
0000
ENDCHAR
STARTCHAR 4
ENCODING 52
SWIDTH 570 0
DWIDTH 7 0
BBX 7 13 0 -3
BITMAP
0000
0000
0800
1800
2800
4800
8800
8800
fc00
0800
0800
0000
0000
ENDCHAR
STARTCHAR 5
ENCODING 53
SWIDTH 570 0
DWIDTH 7 0
BBX 7 13 0 -3
BITMAP
0000
0000
fc00
8000
8000
b800
c400
0400
0400
8400
7800
0000
0000
ENDCHAR
STARTCHAR 6
ENCODING 54
SWIDTH 570 0
DWIDTH 7 0
BBX 7 13 0 -3
BITMAP
0000
0000
3800
4000
8000
8000
b800
c400
8400
8400
7800
0000
0000
ENDCHAR
STARTCHAR 7
ENCODING 55
SWIDTH 570 0
DWIDTH 7 0
BBX 7 13 0 -3
BITMAP
0000
0000
fc00
0400
0800
1000
1000
2000
2000
4000
4000
0000
0000
ENDCHAR
STARTCHAR 8
ENCODING 56
SWIDTH 570 0
DWIDTH 7 0
BBX 7 13 0 -3
BITMAP
0000
0000
7800
8400
8400
8400
7800
8400
8400
8400
7800
0000
0000
ENDCHAR
STARTCHAR 9
ENCODING 57
SWIDTH 570 0
DWIDTH 7 0
BBX 7 13 0 -3
BITMAP
0000
0000
7800
8400
8400
8c00
7400
0400
0400
0800
7000
0000
0000
ENDCHAR
STARTCHAR :
ENCODING 58
SWIDTH 570 0
DWIDTH 7 0
BBX 7 13 0 -3
BITMAP
0000
0000
0000
0000
1000
3800
1000
0000
0000
1000
3800
1000
0000
ENDCHAR
STARTCHAR ;
ENCODING 59
SWIDTH 570 0
DWIDTH 7 0
BBX 7 13 0 -3
BITMAP
0000
0000
0000
0000
1000
3800
1000
0000
0000
3800
3000
4000
0000
ENDCHAR
STARTCHAR <
ENCODING 60
SWIDTH 570 0
DWIDTH 7 0
BBX 7 13 0 -3
BITMAP
0000
0000
0400
0800
1000
2000
4000
2000
1000
0800
0400
0000
0000
ENDCHAR
STARTCHAR =
ENCODING 61
SWIDTH 570 0
DWIDTH 7 0
BBX 7 13 0 -3
BITMAP
0000
0000
0000
0000
0000
fc00
0000
0000
fc00
0000
0000
0000
0000
ENDCHAR
STARTCHAR >
ENCODING 62
SWIDTH 570 0
DWIDTH 7 0
BBX 7 13 0 -3
BITMAP
0000
0000
4000
2000
1000
0800
0400
0800
1000
2000
4000
0000
0000
ENDCHAR
STARTCHAR ?
ENCODING 63
SWIDTH 570 0
DWIDTH 7 0
BBX 7 13 0 -3
BITMAP
0000
0000
7800
8400
8400
0400
0800
1000
1000
0000
1000
0000
0000
ENDCHAR
STARTCHAR @
ENCODING 64
SWIDTH 570 0
DWIDTH 7 0
BBX 7 13 0 -3
BITMAP
0000
0000
7800
8400
8400
9c00
a400
ac00
9400
8000
7800
0000
0000
ENDCHAR
STARTCHAR A
ENCODING 65
SWIDTH 570 0
DWIDTH 7 0
BBX 7 13 0 -3
BITMAP
0000
0000
3000
4800
8400
8400
8400
fc00
8400
8400
8400
0000
0000
ENDCHAR
STARTCHAR B
ENCODING 66
SWIDTH 570 0
DWIDTH 7 0
BBX 7 13 0 -3
BITMAP
0000
0000
f800
4400
4400
4400
7800
4400
4400
4400
f800
0000
0000
ENDCHAR
STARTCHAR C
ENCODING 67
SWIDTH 570 0
DWIDTH 7 0
BBX 7 13 0 -3
BITMAP
0000
0000
7800
8400
8000
8000
8000
8000
8000
8400
7800
0000
0000
ENDCHAR
STARTCHAR D
ENCODING 68
SWIDTH 570 0
DWIDTH 7 0
BBX 7 13 0 -3
BITMAP
0000
0000
f800
4400
4400
4400
4400
4400
4400
4400
f800
0000
0000
ENDCHAR
STARTCHAR E
ENCODING 69
SWIDTH 570 0
DWIDTH 7 0
BBX 7 13 0 -3
BITMAP
0000
0000
fc00
8000
8000
8000
f000
8000
8000
8000
fc00
0000
0000
ENDCHAR
STARTCHAR F
ENCODING 70
SWIDTH 570 0
DWIDTH 7 0
BBX 7 13 0 -3
BITMAP
0000
0000
fc00
8000
8000
8000
f000
8000
8000
8000
8000
0000
0000
ENDCHAR
STARTCHAR G
ENCODING 71
SWIDTH 570 0
DWIDTH 7 0
BBX 7 13 0 -3
BITMAP
0000
0000
7800
8400
8000
8000
8000
9c00
8400
8c00
7400
0000
0000
ENDCHAR
STARTCHAR H
ENCODING 72
SWIDTH 570 0
DWIDTH 7 0
BBX 7 13 0 -3
BITMAP
0000
0000
8400
8400
8400
8400
fc00
8400
8400
8400
8400
0000
0000
ENDCHAR
STARTCHAR I
ENCODING 73
SWIDTH 570 0
DWIDTH 7 0
BBX 7 13 0 -3
BITMAP
0000
0000
f800
2000
2000
2000
2000
2000
2000
2000
f800
0000
0000
ENDCHAR
STARTCHAR J
ENCODING 74
SWIDTH 570 0
DWIDTH 7 0
BBX 7 13 0 -3
BITMAP
0000
0000
1c00
0800
0800
0800
0800
0800
0800
8800
7000
0000
0000
ENDCHAR
STARTCHAR K
ENCODING 75
SWIDTH 570 0
DWIDTH 7 0
BBX 7 13 0 -3
BITMAP
0000
0000
8400
8800
9000
a000
c000
a000
9000
8800
8400
0000
0000
ENDCHAR
STARTCHAR L
ENCODING 76
SWIDTH 570 0
DWIDTH 7 0
BBX 7 13 0 -3
BITMAP
0000
0000
8000
8000
8000
8000
8000
8000
8000
8000
fc00
0000
0000
ENDCHAR
STARTCHAR M
ENCODING 77
SWIDTH 570 0
DWIDTH 7 0
BBX 7 13 0 -3
BITMAP
0000
0000
8400
cc00
cc00
b400
b400
8400
8400
8400
8400
0000
0000
ENDCHAR
STARTCHAR N
ENCODING 78
SWIDTH 570 0
DWIDTH 7 0
BBX 7 13 0 -3
BITMAP
0000
0000
8400
8400
c400
a400
9400
8c00
8400
8400
8400
0000
0000
ENDCHAR
STARTCHAR O
ENCODING 79
SWIDTH 570 0
DWIDTH 7 0
BBX 7 13 0 -3
BITMAP
0000
0000
7800
8400
8400
8400
8400
8400
8400
8400
7800
0000
0000
ENDCHAR
STARTCHAR P
ENCODING 80
SWIDTH 570 0
DWIDTH 7 0
BBX 7 13 0 -3
BITMAP
0000
0000
f800
8400
8400
8400
f800
8000
8000
8000
8000
0000
0000
ENDCHAR
STARTCHAR Q
ENCODING 81
SWIDTH 570 0
DWIDTH 7 0
BBX 7 13 0 -3
BITMAP
0000
0000
7800
8400
8400
8400
8400
8400
a400
9400
7800
0400
0000
ENDCHAR
STARTCHAR R
ENCODING 82
SWIDTH 570 0
DWIDTH 7 0
BBX 7 13 0 -3
BITMAP
0000
0000
f800
8400
8400
8400
f800
a000
9000
8800
8400
0000
0000
ENDCHAR
STARTCHAR S
ENCODING 83
SWIDTH 570 0
DWIDTH 7 0
BBX 7 13 0 -3
BITMAP
0000
0000
7800
8400
8000
8000
7800
0400
0400
8400
7800
0000
0000
ENDCHAR
STARTCHAR T
ENCODING 84
SWIDTH 570 0
DWIDTH 7 0
BBX 7 13 0 -3
BITMAP
0000
0000
f800
2000
2000
2000
2000
2000
2000
2000
2000
0000
0000
ENDCHAR
STARTCHAR U
ENCODING 85
SWIDTH 570 0
DWIDTH 7 0
BBX 7 13 0 -3
BITMAP
0000
0000
8400
8400
8400
8400
8400
8400
8400
8400
7800
0000
0000
ENDCHAR
STARTCHAR V
ENCODING 86
SWIDTH 570 0
DWIDTH 7 0
BBX 7 13 0 -3
BITMAP
0000
0000
8400
8400
8400
4800
4800
4800
3000
3000
3000
0000
0000
ENDCHAR
STARTCHAR W
ENCODING 87
SWIDTH 570 0
DWIDTH 7 0
BBX 7 13 0 -3
BITMAP
0000
0000
8400
8400
8400
8400
b400
b400
cc00
cc00
8400
0000
0000
ENDCHAR
STARTCHAR X
ENCODING 88
SWIDTH 570 0
DWIDTH 7 0
BBX 7 13 0 -3
BITMAP
0000
0000
8400
8400
4800
4800
3000
4800
4800
8400
8400
0000
0000
ENDCHAR
STARTCHAR Y
ENCODING 89
SWIDTH 570 0
DWIDTH 7 0
BBX 7 13 0 -3
BITMAP
0000
0000
8800
8800
5000
5000
2000
2000
2000
2000
2000
0000
0000
ENDCHAR
STARTCHAR Z
ENCODING 90
SWIDTH 570 0
DWIDTH 7 0
BBX 7 13 0 -3
BITMAP
0000
0000
fc00
0400
0800
1000
3000
2000
4000
8000
fc00
0000
0000
ENDCHAR
STARTCHAR [
ENCODING 91
SWIDTH 570 0
DWIDTH 7 0
BBX 7 13 0 -3
BITMAP
0000
0000
7800
4000
4000
4000
4000
4000
4000
4000
7800
0000
0000
ENDCHAR
STARTCHAR \
ENCODING 92
SWIDTH 570 0
DWIDTH 7 0
BBX 7 13 0 -3
BITMAP
0000
0000
4000
4000
2000
2000
1000
0800
0800
0400
0400
0000
0000
ENDCHAR
STARTCHAR ]
ENCODING 93
SWIDTH 570 0
DWIDTH 7 0
BBX 7 13 0 -3
BITMAP
0000
0000
7800
0800
0800
0800
0800
0800
0800
0800
7800
0000
0000
ENDCHAR
STARTCHAR ^
ENCODING 94
SWIDTH 570 0
DWIDTH 7 0
BBX 7 13 0 -3
BITMAP
0000
0000
1000
2800
4400
0000
0000
0000
0000
0000
0000
0000
0000
ENDCHAR
STARTCHAR _
ENCODING 95
SWIDTH 570 0
DWIDTH 7 0
BBX 7 13 0 -3
BITMAP
0000
0000
0000
0000
0000
0000
0000
0000
0000
0000
0000
fc00
0000
ENDCHAR
STARTCHAR `
ENCODING 96
SWIDTH 570 0
DWIDTH 7 0
BBX 7 13 0 -3
BITMAP
0000
0000
7000
3000
0800
0000
0000
0000
0000
0000
0000
0000
0000
ENDCHAR
STARTCHAR a
ENCODING 97
SWIDTH 570 0
DWIDTH 7 0
BBX 7 13 0 -3
BITMAP
0000
0000
0000
0000
0000
7800
0400
7c00
8400
8c00
7400
0000
0000
ENDCHAR
STARTCHAR b
ENCODING 98
SWIDTH 570 0
DWIDTH 7 0
BBX 7 13 0 -3
BITMAP
0000
0000
8000
8000
8000
b800
c400
8400
8400
c400
b800
0000
0000
ENDCHAR
STARTCHAR c
ENCODING 99
SWIDTH 570 0
DWIDTH 7 0
BBX 7 13 0 -3
BITMAP
0000
0000
0000
0000
0000
7800
8400
8000
8000
8400
7800
0000
0000
ENDCHAR
STARTCHAR d
ENCODING 100
SWIDTH 570 0
DWIDTH 7 0
BBX 7 13 0 -3
BITMAP
0000
0000
0400
0400
0400
7400
8c00
8400
8400
8c00
7400
0000
0000
ENDCHAR
STARTCHAR e
ENCODING 101
SWIDTH 570 0
DWIDTH 7 0
BBX 7 13 0 -3
BITMAP
0000
0000
0000
0000
0000
7800
8400
fc00
8000
8400
7800
0000
0000
ENDCHAR
STARTCHAR f
ENCODING 102
SWIDTH 570 0
DWIDTH 7 0
BBX 7 13 0 -3
BITMAP
0000
0000
3800
4400
4000
4000
f000
4000
4000
4000
4000
0000
0000
ENDCHAR
STARTCHAR g
ENCODING 103
SWIDTH 570 0
DWIDTH 7 0
BBX 7 13 0 -3
BITMAP
0000
0000
0000
0000
0000
7400
8800
8800
7000
8000
7800
8400
7800
ENDCHAR
STARTCHAR h
ENCODING 104
SWIDTH 570 0
DWIDTH 7 0
BBX 7 13 0 -3
BITMAP
0000
0000
8000
8000
8000
b800
c400
8400
8400
8400
8400
0000
0000
ENDCHAR
STARTCHAR i
ENCODING 105
SWIDTH 570 0
DWIDTH 7 0
BBX 7 13 0 -3
BITMAP
0000
0000
0000
2000
0000
6000
2000
2000
2000
2000
f800
0000
0000
ENDCHAR
STARTCHAR j
ENCODING 106
SWIDTH 570 0
DWIDTH 7 0
BBX 7 13 0 -3
BITMAP
0000
0000
0000
0800
0000
1800
0800
0800
0800
0800
8800
8800
7000
ENDCHAR
STARTCHAR k
ENCODING 107
SWIDTH 570 0
DWIDTH 7 0
BBX 7 13 0 -3
BITMAP
0000
0000
8000
8000
8000
8800
9000
e000
9000
8800
8400
0000
0000
ENDCHAR
STARTCHAR l
ENCODING 108
SWIDTH 570 0
DWIDTH 7 0
BBX 7 13 0 -3
BITMAP
0000
0000
6000
2000
2000
2000
2000
2000
2000
2000
f800
0000
0000
ENDCHAR
STARTCHAR m
ENCODING 109
SWIDTH 570 0
DWIDTH 7 0
BBX 7 13 0 -3
BITMAP
0000
0000
0000
0000
0000
d000
a800
a800
a800
a800
8800
0000
0000
ENDCHAR
STARTCHAR n
ENCODING 110
SWIDTH 570 0
DWIDTH 7 0
BBX 7 13 0 -3
BITMAP
0000
0000
0000
0000
0000
b800
c400
8400
8400
8400
8400
0000
0000
ENDCHAR
STARTCHAR o
ENCODING 111
SWIDTH 570 0
DWIDTH 7 0
BBX 7 13 0 -3
BITMAP
0000
0000
0000
0000
0000
7800
8400
8400
8400
8400
7800
0000
0000
ENDCHAR
STARTCHAR p
ENCODING 112
SWIDTH 570 0
DWIDTH 7 0
BBX 7 13 0 -3
BITMAP
0000
0000
0000
0000
0000
b800
c400
8400
c400
b800
8000
8000
8000
ENDCHAR
STARTCHAR q
ENCODING 113
SWIDTH 570 0
DWIDTH 7 0
BBX 7 13 0 -3
BITMAP
0000
0000
0000
0000
0000
7400
8c00
8400
8c00
7400
0400
0400
0400
ENDCHAR
STARTCHAR r
ENCODING 114
SWIDTH 570 0
DWIDTH 7 0
BBX 7 13 0 -3
BITMAP
0000
0000
0000
0000
0000
b800
4400
4000
4000
4000
4000
0000
0000
ENDCHAR
STARTCHAR s
ENCODING 115
SWIDTH 570 0
DWIDTH 7 0
BBX 7 13 0 -3
BITMAP
0000
0000
0000
0000
0000
7800
8400
6000
1800
8400
7800
0000
0000
ENDCHAR
STARTCHAR t
ENCODING 116
SWIDTH 570 0
DWIDTH 7 0
BBX 7 13 0 -3
BITMAP
0000
0000
0000
4000
4000
f000
4000
4000
4000
4400
3800
0000
0000
ENDCHAR
STARTCHAR u
ENCODING 117
SWIDTH 570 0
DWIDTH 7 0
BBX 7 13 0 -3
BITMAP
0000
0000
0000
0000
0000
8400
8400
8400
8400
8c00
7400
0000
0000
ENDCHAR
STARTCHAR v
ENCODING 118
SWIDTH 570 0
DWIDTH 7 0
BBX 7 13 0 -3
BITMAP
0000
0000
0000
0000
0000
8800
8800
8800
5000
5000
2000
0000
0000
ENDCHAR
STARTCHAR w
ENCODING 119
SWIDTH 570 0
DWIDTH 7 0
BBX 7 13 0 -3
BITMAP
0000
0000
0000
0000
0000
8800
8800
a800
a800
a800
5000
0000
0000
ENDCHAR
STARTCHAR x
ENCODING 120
SWIDTH 570 0
DWIDTH 7 0
BBX 7 13 0 -3
BITMAP
0000
0000
0000
0000
0000
8400
4800
3000
3000
4800
8400
0000
0000
ENDCHAR
STARTCHAR y
ENCODING 121
SWIDTH 570 0
DWIDTH 7 0
BBX 7 13 0 -3
BITMAP
0000
0000
0000
0000
0000
8400
8400
8400
8c00
7400
0400
8400
7800
ENDCHAR
STARTCHAR z
ENCODING 122
SWIDTH 570 0
DWIDTH 7 0
BBX 7 13 0 -3
BITMAP
0000
0000
0000
0000
0000
fc00
0800
1000
2000
4000
fc00
0000
0000
ENDCHAR
STARTCHAR {
ENCODING 123
SWIDTH 570 0
DWIDTH 7 0
BBX 7 13 0 -3
BITMAP
0000
0000
1c00
2000
2000
1000
6000
1000
2000
2000
1c00
0000
0000
ENDCHAR
STARTCHAR |
ENCODING 124
SWIDTH 570 0
DWIDTH 7 0
BBX 7 13 0 -3
BITMAP
0000
0000
1000
1000
1000
1000
1000
1000
1000
1000
1000
0000
0000
ENDCHAR
STARTCHAR }
ENCODING 125
SWIDTH 570 0
DWIDTH 7 0
BBX 7 13 0 -3
BITMAP
0000
0000
7000
0800
0800
1000
0c00
1000
0800
0800
7000
0000
0000
ENDCHAR
STARTCHAR ~
ENCODING 126
SWIDTH 570 0
DWIDTH 7 0
BBX 7 13 0 -3
BITMAP
0000
0000
2400
5400
4800
0000
0000
0000
0000
0000
0000
0000
0000
ENDCHAR
STARTCHAR (Blank)
ENCODING 127
SWIDTH 570 0
DWIDTH 7 0
BBX 7 13 0 -3
BITMAP
0000
0000
0000
0000
0000
0000
0000
0000
0000
0000
0000
0000
0000
ENDCHAR
STARTCHAR 00a0
ENCODING 160
SWIDTH 666 0
DWIDTH 7 0
BBX 7 13 0 -3
BITMAP
0000
0000
0000
0000
0000
0000
0000
0000
0000
0000
0000
0000
0000
ENDCHAR
STARTCHAR 00a1
ENCODING 161
SWIDTH 666 0
DWIDTH 7 0
BBX 7 13 0 -3
BITMAP
0000
0000
1000
0000
1000
1000
1000
1000
1000
1000
1000
0000
0000
ENDCHAR
STARTCHAR 00a2
ENCODING 162
SWIDTH 666 0
DWIDTH 7 0
BBX 7 13 0 -3
BITMAP
0000
0000
1000
3800
5400
5000
5000
5400
3800
1000
0000
0000
0000
ENDCHAR
STARTCHAR 00a3
ENCODING 163
SWIDTH 666 0
DWIDTH 7 0
BBX 7 13 0 -3
BITMAP
0000
0000
0000
3800
4400
4000
e000
4000
4000
4400
b800
0000
0000
ENDCHAR
STARTCHAR 00a4
ENCODING 164
SWIDTH 666 0
DWIDTH 7 0
BBX 7 13 0 -3
BITMAP
0000
0000
0000
0000
8400
7800
4800
4800
7800
8400
0000
0000
0000
ENDCHAR
STARTCHAR 00a5
ENCODING 165
SWIDTH 666 0
DWIDTH 7 0
BBX 7 13 0 -3
BITMAP
0000
0000
8800
8800
5000
5000
f800
2000
f800
2000
2000
0000
0000
ENDCHAR
STARTCHAR 00a6
ENCODING 166
SWIDTH 666 0
DWIDTH 7 0
BBX 7 13 0 -3
BITMAP
0000
0000
1000
1000
1000
1000
0000
1000
1000
1000
1000
0000
0000
ENDCHAR
STARTCHAR 00a7
ENCODING 167
SWIDTH 666 0
DWIDTH 7 0
BBX 7 13 0 -3
BITMAP
0000
3000
4800
4000
3000
4800
4800
3000
0800
4800
3000
0000
0000
ENDCHAR
STARTCHAR 00a8
ENCODING 168
SWIDTH 666 0
DWIDTH 7 0
BBX 7 13 0 -3
BITMAP
0000
0000
6c00
0000
0000
0000
0000
0000
0000
0000
0000
0000
0000
ENDCHAR
STARTCHAR 00a9
ENCODING 169
SWIDTH 666 0
DWIDTH 7 0
BBX 7 13 0 -3
BITMAP
0000
7800
8400
b400
a400
a400
a400
b400
8400
7800
0000
0000
0000
ENDCHAR
STARTCHAR 00aa
ENCODING 170
SWIDTH 666 0
DWIDTH 7 0
BBX 7 13 0 -3
BITMAP
0000
0000
3800
0400
3c00
4400
3c00
0000
7c00
0000
0000
0000
0000
ENDCHAR
STARTCHAR 00ab
ENCODING 171
SWIDTH 666 0
DWIDTH 7 0
BBX 7 13 0 -3
BITMAP
0000
0000
0000
1400
2800
5000
a000
5000
2800
1400
0000
0000
0000
ENDCHAR
STARTCHAR 00ac
ENCODING 172
SWIDTH 666 0
DWIDTH 7 0
BBX 7 13 0 -3
BITMAP
0000
0000
0000
0000
0000
0000
7c00
0400
0400
0400
0000
0000
0000
ENDCHAR
STARTCHAR 00ad
ENCODING 173
SWIDTH 666 0
DWIDTH 7 0
BBX 7 13 0 -3
BITMAP
0000
0000
0000
0000
0000
0000
7c00
0000
0000
0000
0000
0000
0000
ENDCHAR
STARTCHAR 00ae
ENCODING 174
SWIDTH 666 0
DWIDTH 7 0
BBX 7 13 0 -3
BITMAP
0000
7800
8400
b400
ac00
ac00
b400
ac00
8400
7800
0000
0000
0000
ENDCHAR
STARTCHAR 00af
ENCODING 175
SWIDTH 666 0
DWIDTH 7 0
BBX 7 13 0 -3
BITMAP
0000
0000
7c00
0000
0000
0000
0000
0000
0000
0000
0000
0000
0000
ENDCHAR
STARTCHAR 00b0
ENCODING 176
SWIDTH 666 0
DWIDTH 7 0
BBX 7 13 0 -3
BITMAP
0000
0000
3000
4800
4800
3000
0000
0000
0000
0000
0000
0000
0000
ENDCHAR
STARTCHAR 00b1
ENCODING 177
SWIDTH 666 0
DWIDTH 7 0
BBX 7 13 0 -3
BITMAP
0000
0000
0000
1000
1000
7c00
1000
1000
0000
7c00
0000
0000
0000
ENDCHAR
STARTCHAR 00b2
ENCODING 178
SWIDTH 666 0
DWIDTH 7 0
BBX 7 13 0 -3
BITMAP
0000
4000
a000
2000
4000
8000
e000
0000
0000
0000
0000
0000
0000
ENDCHAR
STARTCHAR 00b3
ENCODING 179
SWIDTH 666 0
DWIDTH 7 0
BBX 7 13 0 -3
BITMAP
0000
e000
2000
4000
2000
a000
4000
0000
0000
0000
0000
0000
0000
ENDCHAR
STARTCHAR 00b4
ENCODING 180
SWIDTH 666 0
DWIDTH 7 0
BBX 7 13 0 -3
BITMAP
0000
1000
2000
0000
0000
0000
0000
0000
0000
0000
0000
0000
0000
ENDCHAR
STARTCHAR 00b5
ENCODING 181
SWIDTH 666 0
DWIDTH 7 0
BBX 7 13 0 -3
BITMAP
0000
0000
0000
0000
0000
8400
8400
8400
8400
cc00
b400
8000
0000
ENDCHAR
STARTCHAR 00b6
ENCODING 182
SWIDTH 666 0
DWIDTH 7 0
BBX 7 13 0 -3
BITMAP
0000
0000
3c00
5400
9400
9400
5400
3400
1400
1400
1c00
0000
0000
ENDCHAR
STARTCHAR 00b7
ENCODING 183
SWIDTH 666 0
DWIDTH 7 0
BBX 7 13 0 -3
BITMAP
0000
0000
0000
0000
0000
0000
3000
0000
0000
0000
0000
0000
0000
ENDCHAR
STARTCHAR 00b8
ENCODING 184
SWIDTH 666 0
DWIDTH 7 0
BBX 7 13 0 -3
BITMAP
0000
0000
0000
0000
0000
0000
0000
0000
0000
0000
1000
4800
3000
ENDCHAR
STARTCHAR 00b9
ENCODING 185
SWIDTH 666 0
DWIDTH 7 0
BBX 7 13 0 -3
BITMAP
0000
4000
c000
4000
4000
4000
e000
0000
0000
0000
0000
0000
0000
ENDCHAR
STARTCHAR 00ba
ENCODING 186
SWIDTH 666 0
DWIDTH 7 0
BBX 7 13 0 -3
BITMAP
0000
0000
3000
4800
4800
3000
0000
7800
0000
0000
0000
0000
0000
ENDCHAR
STARTCHAR 00bb
ENCODING 187
SWIDTH 666 0
DWIDTH 7 0
BBX 7 13 0 -3
BITMAP
0000
0000
0000
a000
5000
2800
1400
2800
5000
a000
0000
0000
0000
ENDCHAR
STARTCHAR 00bc
ENCODING 188
SWIDTH 666 0
DWIDTH 7 0
BBX 7 13 0 -3
BITMAP
0000
4000
c000
4000
4000
4400
ec00
1400
1400
1c00
0400
0000
0000
ENDCHAR
STARTCHAR 00bd
ENCODING 189
SWIDTH 666 0
DWIDTH 7 0
BBX 7 13 0 -3
BITMAP
0000
4000
c000
4000
4000
4800
f400
0400
0800
1000
1c00
0000
0000
ENDCHAR
STARTCHAR 00be
ENCODING 190
SWIDTH 666 0
DWIDTH 7 0
BBX 7 13 0 -3
BITMAP
0000
e000
2000
4000
2000
a400
4c00
1400
1400
1c00
0400
0000
0000
ENDCHAR
STARTCHAR 00bf
ENCODING 191
SWIDTH 666 0
DWIDTH 7 0
BBX 7 13 0 -3
BITMAP
0000
0000
2000
0000
2000
2000
4000
8000
8400
8400
7800
0000
0000
ENDCHAR
STARTCHAR 00c0
ENCODING 192
SWIDTH 666 0
DWIDTH 7 0
BBX 7 13 0 -3
BITMAP
0000
2000
1000
0000
3000
4800
8400
8400
fc00
8400
8400
0000
0000
ENDCHAR
STARTCHAR 00c1
ENCODING 193
SWIDTH 666 0
DWIDTH 7 0
BBX 7 13 0 -3
BITMAP
0000
1000
2000
0000
3000
4800
8400
8400
fc00
8400
8400
0000
0000
ENDCHAR
STARTCHAR 00c2
ENCODING 194
SWIDTH 666 0
DWIDTH 7 0
BBX 7 13 0 -3
BITMAP
0000
3000
4800
0000
3000
4800
8400
8400
fc00
8400
8400
0000
0000
ENDCHAR
STARTCHAR 00c3
ENCODING 195
SWIDTH 666 0
DWIDTH 7 0
BBX 7 13 0 -3
BITMAP
0000
2800
5000
0000
3000
4800
8400
8400
fc00
8400
8400
0000
0000
ENDCHAR
STARTCHAR 00c4
ENCODING 196
SWIDTH 666 0
DWIDTH 7 0
BBX 7 13 0 -3
BITMAP
0000
4800
4800
0000
3000
4800
8400
8400
fc00
8400
8400
0000
0000
ENDCHAR
STARTCHAR 00c5
ENCODING 197
SWIDTH 666 0
DWIDTH 7 0
BBX 7 13 0 -3
BITMAP
0000
3000
4800
3000
3000
4800
8400
8400
fc00
8400
8400
0000
0000
ENDCHAR
STARTCHAR 00c6
ENCODING 198
SWIDTH 666 0
DWIDTH 7 0
BBX 7 13 0 -3
BITMAP
0000
0000
0000
5c00
a000
a000
b800
e000
a000
a000
bc00
0000
0000
ENDCHAR
STARTCHAR 00c7
ENCODING 199
SWIDTH 666 0
DWIDTH 7 0
BBX 7 13 0 -3
BITMAP
0000
0000
0000
7800
8400
8000
8000
8000
8400
7800
1000
4800
3000
ENDCHAR
STARTCHAR 00c8
ENCODING 200
SWIDTH 666 0
DWIDTH 7 0
BBX 7 13 0 -3
BITMAP
0000
2000
1000
0000
fc00
8000
8000
f000
8000
8000
fc00
0000
0000
ENDCHAR
STARTCHAR 00c9
ENCODING 201
SWIDTH 666 0
DWIDTH 7 0
BBX 7 13 0 -3
BITMAP
0000
1000
2000
0000
fc00
8000
8000
f000
8000
8000
fc00
0000
0000
ENDCHAR
STARTCHAR 00ca
ENCODING 202
SWIDTH 666 0
DWIDTH 7 0
BBX 7 13 0 -3
BITMAP
0000
3000
4800
0000
fc00
8000
8000
f000
8000
8000
fc00
0000
0000
ENDCHAR
STARTCHAR 00cb
ENCODING 203
SWIDTH 666 0
DWIDTH 7 0
BBX 7 13 0 -3
BITMAP
0000
4800
4800
0000
fc00
8000
8000
f000
8000
8000
fc00
0000
0000
ENDCHAR
STARTCHAR 00cc
ENCODING 204
SWIDTH 666 0
DWIDTH 7 0
BBX 7 13 0 -3
BITMAP
0000
2000
1000
0000
7c00
1000
1000
1000
1000
1000
7c00
0000
0000
ENDCHAR
STARTCHAR 00cd
ENCODING 205
SWIDTH 666 0
DWIDTH 7 0
BBX 7 13 0 -3
BITMAP
0000
1000
2000
0000
7c00
1000
1000
1000
1000
1000
7c00
0000
0000
ENDCHAR
STARTCHAR 00ce
ENCODING 206
SWIDTH 666 0
DWIDTH 7 0
BBX 7 13 0 -3
BITMAP
0000
3000
4800
0000
7c00
1000
1000
1000
1000
1000
7c00
0000
0000
ENDCHAR
STARTCHAR 00cf
ENCODING 207
SWIDTH 666 0
DWIDTH 7 0
BBX 7 13 0 -3
BITMAP
0000
2800
2800
0000
7c00
1000
1000
1000
1000
1000
7c00
0000
0000
ENDCHAR
STARTCHAR 00d0
ENCODING 208
SWIDTH 666 0
DWIDTH 7 0
BBX 7 13 0 -3
BITMAP
0000
0000
0000
f800
4400
4400
e400
4400
4400
4400
f800
0000
0000
ENDCHAR
STARTCHAR 00d1
ENCODING 209
SWIDTH 666 0
DWIDTH 7 0
BBX 7 13 0 -3
BITMAP
0000
2800
5000
0000
8400
c400
a400
a400
9400
8c00
8400
0000
0000
ENDCHAR
STARTCHAR 00d2
ENCODING 210
SWIDTH 666 0
DWIDTH 7 0
BBX 7 13 0 -3
BITMAP
0000
2000
1000
0000
7800
8400
8400
8400
8400
8400
7800
0000
0000
ENDCHAR
STARTCHAR 00d3
ENCODING 211
SWIDTH 666 0
DWIDTH 7 0
BBX 7 13 0 -3
BITMAP
0000
1000
2000
0000
7800
8400
8400
8400
8400
8400
7800
0000
0000
ENDCHAR
STARTCHAR 00d4
ENCODING 212
SWIDTH 666 0
DWIDTH 7 0
BBX 7 13 0 -3
BITMAP
0000
3000
4800
0000
7800
8400
8400
8400
8400
8400
7800
0000
0000
ENDCHAR
STARTCHAR 00d5
ENCODING 213
SWIDTH 666 0
DWIDTH 7 0
BBX 7 13 0 -3
BITMAP
0000
2800
5000
0000
7800
8400
8400
8400
8400
8400
7800
0000
0000
ENDCHAR
STARTCHAR 00d6
ENCODING 214
SWIDTH 666 0
DWIDTH 7 0
BBX 7 13 0 -3
BITMAP
0000
4800
4800
0000
7800
8400
8400
8400
8400
8400
7800
0000
0000
ENDCHAR
STARTCHAR 00d7
ENCODING 215
SWIDTH 666 0
DWIDTH 7 0
BBX 7 13 0 -3
BITMAP
0000
0000
0000
0000
8400
4800
3000
3000
3000
4800
8400
0000
0000
ENDCHAR
STARTCHAR 00d8
ENCODING 216
SWIDTH 666 0
DWIDTH 7 0
BBX 7 13 0 -3
BITMAP
0000
0000
0400
7800
9400
9400
9400
a400
a400
a400
7800
8000
0000
ENDCHAR
STARTCHAR 00d9
ENCODING 217
SWIDTH 666 0
DWIDTH 7 0
BBX 7 13 0 -3
BITMAP
0000
2000
1000
0000
8400
8400
8400
8400
8400
8400
7800
0000
0000
ENDCHAR
STARTCHAR 00da
ENCODING 218
SWIDTH 666 0
DWIDTH 7 0
BBX 7 13 0 -3
BITMAP
0000
1000
2000
0000
8400
8400
8400
8400
8400
8400
7800
0000
0000
ENDCHAR
STARTCHAR 00db
ENCODING 219
SWIDTH 666 0
DWIDTH 7 0
BBX 7 13 0 -3
BITMAP
0000
3000
4800
0000
8400
8400
8400
8400
8400
8400
7800
0000
0000
ENDCHAR
STARTCHAR 00dc
ENCODING 220
SWIDTH 666 0
DWIDTH 7 0
BBX 7 13 0 -3
BITMAP
0000
4800
4800
0000
8400
8400
8400
8400
8400
8400
7800
0000
0000
ENDCHAR
STARTCHAR 00dd
ENCODING 221
SWIDTH 666 0
DWIDTH 7 0
BBX 7 13 0 -3
BITMAP
0000
1000
2000
0000
4400
4400
2800
1000
1000
1000
1000
0000
0000
ENDCHAR
STARTCHAR 00de
ENCODING 222
SWIDTH 666 0
DWIDTH 7 0
BBX 7 13 0 -3
BITMAP
0000
0000
8000
f800
8400
8400
8400
f800
8000
8000
8000
0000
0000
ENDCHAR
STARTCHAR 00df
ENCODING 223
SWIDTH 666 0
DWIDTH 7 0
BBX 7 13 0 -3
BITMAP
0000
0000
0000
7800
8400
8400
f800
8400
8400
c400
b800
8000
0000
ENDCHAR
STARTCHAR 00e0
ENCODING 224
SWIDTH 666 0
DWIDTH 7 0
BBX 7 13 0 -3
BITMAP
0000
2000
1000
0000
0000
7800
0400
7c00
8400
8c00
7400
0000
0000
ENDCHAR
STARTCHAR 00e1
ENCODING 225
SWIDTH 666 0
DWIDTH 7 0
BBX 7 13 0 -3
BITMAP
0000
1000
2000
0000
0000
7800
0400
7c00
8400
8c00
7400
0000
0000
ENDCHAR
STARTCHAR 00e2
ENCODING 226
SWIDTH 666 0
DWIDTH 7 0
BBX 7 13 0 -3
BITMAP
0000
3000
4800
0000
0000
7800
0400
7c00
8400
8c00
7400
0000
0000
ENDCHAR
STARTCHAR 00e3
ENCODING 227
SWIDTH 666 0
DWIDTH 7 0
BBX 7 13 0 -3
BITMAP
0000
2800
5000
0000
0000
7800
0400
7c00
8400
8c00
7400
0000
0000
ENDCHAR
STARTCHAR 00e4
ENCODING 228
SWIDTH 666 0
DWIDTH 7 0
BBX 7 13 0 -3
BITMAP
0000
4800
4800
0000
0000
7800
0400
7c00
8400
8c00
7400
0000
0000
ENDCHAR
STARTCHAR 00e5
ENCODING 229
SWIDTH 666 0
DWIDTH 7 0
BBX 7 13 0 -3
BITMAP
0000
3000
4800
3000
0000
7800
0400
7c00
8400
8c00
7400
0000
0000
ENDCHAR
STARTCHAR 00e6
ENCODING 230
SWIDTH 666 0
DWIDTH 7 0
BBX 7 13 0 -3
BITMAP
0000
0000
0000
0000
4800
b400
3400
7800
b000
b400
4800
0000
0000
ENDCHAR
STARTCHAR 00e7
ENCODING 231
SWIDTH 666 0
DWIDTH 7 0
BBX 7 13 0 -3
BITMAP
0000
0000
0000
0000
7800
8400
8000
8000
8400
7800
1000
4800
3000
ENDCHAR
STARTCHAR 00e8
ENCODING 232
SWIDTH 666 0
DWIDTH 7 0
BBX 7 13 0 -3
BITMAP
0000
2000
1000
0000
0000
7800
8400
fc00
8000
8400
7800
0000
0000
ENDCHAR
STARTCHAR 00e9
ENCODING 233
SWIDTH 666 0
DWIDTH 7 0
BBX 7 13 0 -3
BITMAP
0000
1000
2000
0000
0000
7800
8400
fc00
8000
8400
7800
0000
0000
ENDCHAR
STARTCHAR 00ea
ENCODING 234
SWIDTH 666 0
DWIDTH 7 0
BBX 7 13 0 -3
BITMAP
0000
3000
4800
0000
0000
7800
8400
fc00
8000
8400
7800
0000
0000
ENDCHAR
STARTCHAR 00eb
ENCODING 235
SWIDTH 666 0
DWIDTH 7 0
BBX 7 13 0 -3
BITMAP
0000
4800
4800
0000
0000
7800
8400
fc00
8000
8400
7800
0000
0000
ENDCHAR
STARTCHAR 00ec
ENCODING 236
SWIDTH 666 0
DWIDTH 7 0
BBX 7 13 0 -3
BITMAP
0000
2000
1000
0000
0000
3000
1000
1000
1000
1000
7c00
0000
0000
ENDCHAR
STARTCHAR 00ed
ENCODING 237
SWIDTH 666 0
DWIDTH 7 0
BBX 7 13 0 -3
BITMAP
0000
1000
2000
0000
0000
3000
1000
1000
1000
1000
7c00
0000
0000
ENDCHAR
STARTCHAR 00ee
ENCODING 238
SWIDTH 666 0
DWIDTH 7 0
BBX 7 13 0 -3
BITMAP
0000
3000
4800
0000
0000
3000
1000
1000
1000
1000
7c00
0000
0000
ENDCHAR
STARTCHAR 00ef
ENCODING 239
SWIDTH 666 0
DWIDTH 7 0
BBX 7 13 0 -3
BITMAP
0000
4800
4800
0000
0000
3000
1000
1000
1000
1000
7c00
0000
0000
ENDCHAR
STARTCHAR 00f0
ENCODING 240
SWIDTH 666 0
DWIDTH 7 0
BBX 7 13 0 -3
BITMAP
0000
4800
3000
5000
0800
7800
8400
8400
8400
8400
7800
0000
0000
ENDCHAR
STARTCHAR 00f1
ENCODING 241
SWIDTH 666 0
DWIDTH 7 0
BBX 7 13 0 -3
BITMAP
0000
2800
5000
0000
0000
b800
c400
8400
8400
8400
8400
0000
0000
ENDCHAR
STARTCHAR 00f2
ENCODING 242
SWIDTH 666 0
DWIDTH 7 0
BBX 7 13 0 -3
BITMAP
0000
2000
1000
0000
0000
7800
8400
8400
8400
8400
7800
0000
0000
ENDCHAR
STARTCHAR 00f3
ENCODING 243
SWIDTH 666 0
DWIDTH 7 0
BBX 7 13 0 -3
BITMAP
0000
1000
2000
0000
0000
7800
8400
8400
8400
8400
7800
0000
0000
ENDCHAR
STARTCHAR 00f4
ENCODING 244
SWIDTH 666 0
DWIDTH 7 0
BBX 7 13 0 -3
BITMAP
0000
3000
4800
0000
0000
7800
8400
8400
8400
8400
7800
0000
0000
ENDCHAR
STARTCHAR 00f5
ENCODING 245
SWIDTH 666 0
DWIDTH 7 0
BBX 7 13 0 -3
BITMAP
0000
2800
5000
0000
0000
7800
8400
8400
8400
8400
7800
0000
0000
ENDCHAR
STARTCHAR 00f6
ENCODING 246
SWIDTH 666 0
DWIDTH 7 0
BBX 7 13 0 -3
BITMAP
0000
4800
4800
0000
0000
7800
8400
8400
8400
8400
7800
0000
0000
ENDCHAR
STARTCHAR 00f7
ENCODING 247
SWIDTH 666 0
DWIDTH 7 0
BBX 7 13 0 -3
BITMAP
0000
0000
0000
1000
1000
0000
7c00
0000
1000
1000
0000
0000
0000
ENDCHAR
STARTCHAR 00f8
ENCODING 248
SWIDTH 666 0
DWIDTH 7 0
BBX 7 13 0 -3
BITMAP
0000
0000
0000
0400
7800
8c00
9400
8400
a400
c400
7800
8000
0000
ENDCHAR
STARTCHAR 00f9
ENCODING 249
SWIDTH 666 0
DWIDTH 7 0
BBX 7 13 0 -3
BITMAP
0000
2000
1000
0000
0000
8400
8400
8400
8400
8c00
7400
0000
0000
ENDCHAR
STARTCHAR 00fa
ENCODING 250
SWIDTH 666 0
DWIDTH 7 0
BBX 7 13 0 -3
BITMAP
0000
1000
2000
0000
0000
8400
8400
8400
8400
8c00
7400
0000
0000
ENDCHAR
STARTCHAR 00fb
ENCODING 251
SWIDTH 666 0
DWIDTH 7 0
BBX 7 13 0 -3
BITMAP
0000
3000
4800
0000
0000
8400
8400
8400
8400
8c00
7400
0000
0000
ENDCHAR
STARTCHAR 00fc
ENCODING 252
SWIDTH 666 0
DWIDTH 7 0
BBX 7 13 0 -3
BITMAP
0000
4800
4800
0000
0000
8400
8400
8400
8400
8c00
7400
0000
0000
ENDCHAR
STARTCHAR 00fd
ENCODING 253
SWIDTH 666 0
DWIDTH 7 0
BBX 7 13 0 -3
BITMAP
0000
1000
2000
0000
0000
8400
8400
8400
8c00
7400
0400
8400
7800
ENDCHAR
STARTCHAR 00fe
ENCODING 254
SWIDTH 666 0
DWIDTH 7 0
BBX 7 13 0 -3
BITMAP
0000
0000
0000
8000
8000
b800
c400
8400
8400
c400
b800
8000
8000
ENDCHAR
STARTCHAR 00ff
ENCODING 255
SWIDTH 666 0
DWIDTH 7 0
BBX 7 13 0 -3
BITMAP
0000
4800
4800
0000
0000
8400
8400
8400
8c00
7400
0400
8400
7800
ENDCHAR
ENDFONT
